# 3ds Max Wavefront OBJ Exporter v0.97b - (c)2007 guruware
# File Created: 13.10.2013 11:21:43

mtllib BigBolt.mtl

#
# object Object01
#

v  0.0000 1.7845 -7.3340
v  0.0000 16.0912 -5.2393
v  4.5166 16.0912 -2.6172
v  -4.5166 16.0912 -2.6172
v  -6.3281 1.7845 -3.6670
v  -4.5166 16.0912 2.6172
v  0.0000 16.0912 5.2393
v  0.0000 17.5023 12.4951
v  -10.8203 17.5023 6.2451
v  -9.4531 25.1341 2.5879
v  10.2686 20.3832 1.7969
v  -10.2686 20.3832 1.7969
v  0.0000 17.5023 -12.4951
v  10.8203 17.5023 -6.2451
v  9.4531 25.1341 -2.1143
v  -9.4531 25.1341 -2.1143
v  -10.2686 20.3832 -1.2939
v  4.5166 16.0912 2.6172
v  10.8203 17.5023 6.2451
v  6.3281 1.7845 3.6670
v  0.0000 1.7845 7.3340
v  8.5400 26.5062 -4.9853
v  0.0000 26.5062 -9.9707
v  -8.5400 26.5062 -4.9853
v  -9.4531 25.1341 -5.4541
v  0.0000 25.1341 -10.9131
v  -10.8203 17.5023 -6.2451
v  10.2686 20.3832 -1.2939
v  9.4482 25.1927 -5.4541
v  -9.4531 25.1341 5.4541
v  8.5400 26.5062 4.9854
v  -8.5400 26.5062 4.9854
v  0.0000 26.5062 9.9707
v  0.0000 0.9886 -5.4492
v  4.6973 0.9886 -2.7246
v  0.0000 0.3099 -0.0000
v  6.3281 1.7845 -3.6670
v  9.4531 25.1341 5.4541
v  0.0000 25.1341 10.9131
v  9.4531 25.1341 2.5879
v  -4.6973 0.9886 -2.7246
v  -6.3281 1.7845 3.6670
v  4.6973 0.9886 2.7246
v  -4.6973 0.9886 2.7246
v  0.0000 0.9886 5.4492
v  8.5400 26.5062 -2.1143
v  8.5400 26.5062 2.5879
v  -8.5400 26.5062 -2.1143
v  -8.5400 26.5062 2.5879
v  -8.5400 26.5062 4.9853
v  -8.5400 26.5062 -4.9854
# 51 vertices

vn 0.0000 0.1451 -0.9894
vn 0.0000 0.1449 -0.9895
vn 0.8575 0.1446 -0.4937
vn -0.8575 0.1446 -0.4937
vn -0.8572 0.1448 -0.4941
vn -0.8576 0.1448 0.4936
vn 0.0003 -0.9816 0.1908
vn 0.0001 -0.9816 0.1908
vn -0.1651 -0.9817 0.0952
vn 0.0000 0.1052 -0.9944
vn 0.0000 0.1642 -0.9864
vn -0.0003 -0.9816 -0.1908
vn -0.0001 -0.9816 -0.1908
vn 0.1651 -0.9817 -0.0952
vn 0.0000 0.1090 0.9940
vn 0.0000 0.1701 0.9854
vn 0.1651 -0.9817 -0.0951
vn 0.1650 -0.9817 0.0953
vn 0.1650 -0.9817 0.0952
vn 0.8573 0.1447 0.4941
vn 0.0000 0.1452 0.9894
vn 0.0000 0.1449 0.9895
vn 0.0000 1.0000 -0.0000
vn -0.4714 0.3340 -0.8163
vn -0.0014 0.3715 -0.9284
vn -0.4923 0.1766 -0.8523
vn 0.4924 0.1755 -0.8525
vn -0.0002 0.2027 -0.9792
vn 0.4715 0.3396 -0.8139
vn -0.4923 0.1765 0.8523
vn 0.0000 0.2029 0.9792
vn -0.4728 0.3333 0.8157
vn -0.0001 -0.9538 -0.3004
vn 0.2604 -0.9538 -0.1498
vn 0.0000 -1.0000 -0.0000
vn 0.8572 0.1448 -0.4941
vn -0.1650 -0.9817 -0.0953
vn -0.1650 -0.9817 -0.0952
vn -0.1651 -0.9817 0.0951
vn 0.4714 0.3340 0.8163
vn 0.0007 0.3717 0.9283
vn 0.4923 0.1766 0.8523
vn -0.2604 -0.9538 -0.1499
vn -0.8573 0.1447 0.4941
vn 0.8576 0.1448 0.4936
vn 0.9353 0.3537 0.0066
vn 0.9833 0.1818 0.0026
vn 0.9837 0.1797 0.0051
vn -0.9833 0.1819 -0.0028
vn -0.9836 0.1805 -0.0051
vn -0.9383 0.3459 -0.0022
vn 0.2604 -0.9538 0.1499
vn -0.2604 -0.9538 0.1498
vn -0.9835 0.1808 0.0044
vn -0.9839 0.1786 0.0039
vn -0.9321 0.3621 0.0021
vn 0.9835 0.1806 -0.0050
vn 0.9838 0.1790 -0.0043
vn 0.9320 0.3625 -0.0021
vn 0.0001 -0.9538 0.3004
vn 0.9330 0.3599 0.0022
vn -0.9374 0.3482 -0.0000
vn -0.9330 0.3599 -0.0000
vn 0.9374 0.3482 -0.0000
vn -0.8325 0.5540 -0.0000
vn 0.0000 0.0000 1.0000
vn 0.0000 0.0000 -1.0000
vn 0.0023 0.5671 0.8236
vn -0.4265 0.5334 0.7305
vn -0.3372 -0.9211 -0.1944
vn 0.0000 -0.9213 -0.3890
vn 0.3372 -0.9211 0.1944
vn 0.0000 -0.9213 0.3890
vn 0.3373 -0.9211 -0.1944
vn -0.3373 -0.9211 0.1944
vn 0.4242 0.5305 0.7339
vn -0.4242 0.5305 -0.7339
vn -0.0037 0.5678 -0.8232
vn 0.8264 0.5631 0.0063
vn 0.8325 0.5540 -0.0000
vn 0.4214 0.5490 -0.7218
# 81 vertex normals

vt 0.4072 0.0650 0.0000
vt 0.9678 0.0650 0.0000
vt 0.9678 0.1873 0.0000
vt 0.9678 0.3099 0.0000
vt 0.4072 0.3099 0.0000
vt 0.1125 0.9766 0.0000
vt 0.0337 0.8253 0.0000
vt 0.3230 0.8253 0.0000
vt 0.4946 0.9305 0.0000
vt 0.9778 0.7762 0.0000
vt 0.4946 0.7762 0.0000
vt 0.2441 0.9766 0.0000
vt 0.9778 0.9305 0.0000
vt 0.4072 0.4322 0.0000
vt 0.9678 0.4322 0.0000
vt 0.4229 0.5897 0.0000
vt 0.6953 0.7528 0.0000
vt 0.9678 0.5897 0.0000
vt 0.2900 0.0489 0.0000
vt 0.2900 0.3843 0.0000
vt 0.0173 0.0252 0.0000
vt 0.0173 0.4080 0.0000
vt 0.4277 0.9188 0.0000
vt 0.3262 0.9188 0.0000
vt 0.3770 0.8250 0.0000
vt 0.4072 0.1873 0.0000
vt 0.0742 0.7718 0.0000
vt 0.2559 0.6424 0.0000
vt 0.3469 0.7974 0.0000
vt 0.2559 0.5667 0.0000
vt 0.3469 0.4119 0.0000
vt 0.0742 0.4376 0.0000
vt 0.0742 0.6602 0.0000
vt 0.0742 0.5489 0.0000
vt 0.4229 0.5081 0.0000
vt 0.0181 0.6529 0.0000
vt 0.9778 0.9776 0.0000
vt 0.4946 0.9776 0.0000
vt 0.0181 0.4600 0.0000
vt 0.0181 0.5565 0.0000
vt 0.3579 0.3697 0.0000
vt 0.3579 0.0635 0.0000
vt 0.2891 0.9847 0.0000
vt 0.4646 0.9847 0.0000
vt 0.0181 0.7491 0.0000
vt 0.9678 0.5081 0.0000
# 46 texture coords

g Object01
usemtl Material__147
s 1
f 1/1/1 2/2/2 3/3/3 
f 4/4/4 5/5/5 6/3/6 
f 7/6/7 8/7/8 9/8/9 
f 10/9/10 11/10/11 12/11/11 
f 2/12/12 13/8/13 14/7/14 
f 15/13/15 16/9/15 17/11/16 
f 2/12/12 14/7/14 3/6/17 
f 18/12/18 19/8/19 8/7/8 
f 4/4/4 1/14/1 5/5/5 
f 20/5/20 7/15/21 21/14/22 
f 22/16/23 23/17/23 24/18/23 
f 25/19/24 26/20/25 27/21/26 
f 15/13/15 17/11/16 28/10/16 
f 14/21/27 13/22/28 29/19/29 
f 9/21/30 8/22/31 30/19/32 
f 31/16/23 32/18/23 33/17/23 
f 34/23/33 35/24/34 36/25/35 
f 1/1/1 3/3/3 37/26/36 
f 4/6/37 27/7/38 13/8/13 
f 6/12/39 27/7/38 4/6/37 
f 38/19/40 39/20/41 19/21/42 
f 10/9/10 40/13/10 11/10/11 
f 36/25/35 41/24/43 34/23/33 
f 7/2/21 42/26/44 21/1/22 
f 20/5/20 18/4/45 7/15/21 
f 18/12/18 8/7/8 7/6/7 
f 29/27/46 28/28/47 14/29/48 
f 3/6/17 14/7/14 19/8/19 
f 12/30/49 9/31/50 30/32/51 
f 6/12/39 9/8/9 27/7/38 
f 37/26/36 18/4/45 20/5/20 
f 36/25/35 35/24/34 43/23/52 
f 8/22/31 39/20/41 30/19/32 
f 19/21/42 39/20/41 8/22/31 
f 13/22/28 26/20/25 29/19/29 
f 27/21/26 26/20/25 13/22/28 
f 36/25/35 44/23/53 41/24/43 
f 6/3/6 5/5/5 42/26/44 
f 17/28/54 27/29/55 9/31/50 
f 16/33/56 27/29/55 17/28/54 
f 14/29/48 11/30/57 19/31/58 
f 19/31/58 11/30/57 40/34/59 
f 37/26/36 3/3/3 18/4/45 
f 3/6/17 19/8/19 18/12/18 
f 36/25/35 45/24/60 44/23/53 
f 36/25/35 43/23/52 45/24/60 
f 6/3/6 42/26/44 7/2/21 
f 7/6/7 9/8/9 6/12/39 
f 22/16/23 24/18/23 46/35/23 
f 29/27/46 15/33/61 28/28/47 
f 2/15/2 1/14/1 4/4/4 
f 4/6/37 13/8/13 2/12/12 
f 16/33/56 25/27/62 27/29/55 
f 12/30/49 30/32/51 10/34/63 
f 19/31/58 40/34/59 38/32/64 
f 47/35/23 32/18/23 31/16/23 
f 11/10/23 17/11/23 12/11/23 
f 17/28/54 9/31/50 12/30/49 
f 14/29/48 28/28/47 11/30/57 
f 28/10/23 17/11/23 11/10/23 
f 48/36/65 25/27/62 16/33/56 
f 46/37/66 48/38/66 16/9/15 
f 49/38/67 40/13/10 10/9/10 
f 10/34/63 50/39/65 49/40/65 
f 10/34/63 30/32/51 50/39/65 
f 30/19/32 33/41/68 50/42/69 
f 41/24/43 5/43/70 1/44/71 
f 44/23/53 5/43/70 41/24/43 
f 43/23/52 20/44/72 21/43/73 
f 35/24/34 20/44/72 43/23/52 
f 34/23/33 37/43/74 35/24/34 
f 35/24/34 37/43/74 20/44/72 
f 44/23/53 42/44/75 5/43/70 
f 45/24/60 42/44/75 44/23/53 
f 34/23/33 1/44/71 37/43/74 
f 41/24/43 1/44/71 34/23/33 
f 30/19/32 39/20/41 33/41/68 
f 31/42/76 33/41/68 39/20/41 
f 51/42/77 23/41/78 26/20/25 
f 29/19/29 26/20/25 23/41/78 
f 45/24/60 21/43/73 42/44/75 
f 43/23/52 21/43/73 45/24/60 
f 46/37/66 16/9/15 15/13/15 
f 22/45/79 46/36/80 15/33/61 
f 48/36/65 51/45/65 25/27/62 
f 51/42/77 26/20/25 25/19/24 
f 22/45/79 15/33/61 29/27/46 
f 29/19/29 23/41/78 22/42/81 
f 38/32/64 47/40/80 31/39/80 
f 31/42/76 39/20/41 38/19/40 
f 38/32/64 40/34/59 47/40/80 
f 49/38/67 47/37/67 40/13/10 
f 46/35/23 24/18/23 48/46/23 
f 47/35/23 49/46/23 32/18/23 
# 94 faces

